<svg width="169" height="36" viewBox="0 0 169 36" fill="none" xmlns="http://www.w3.org/2000/svg">
<path fill-rule="evenodd" clip-rule="evenodd" d="M17.499 7.3937C16.1228 7.53267 14.8175 7.91094 13.5439 8.53979C12.6702 8.97124 12.1571 9.29653 11.3908 9.90503C10.0222 10.9916 8.93876 12.3263 8.19902 13.8369C7.43027 15.4067 7.05639 16.8727 6.99101 18.5732C6.83041 22.7509 8.75195 26.4982 12.2256 28.7815C13.7074 29.7556 15.42 30.4003 17.1572 30.6381C18.0283 30.7573 19.5439 30.7595 20.3066 30.6427C21.5986 30.4449 22.7274 30.0894 23.9015 29.5104C25.7697 28.5893 27.2917 27.2711 28.4679 25.5557C29.4638 24.1031 30.0996 22.4053 30.342 20.5508C30.4345 19.8438 30.4469 18.4166 30.3667 17.7225C30.2926 17.0816 30.0032 15.8084 29.7964 15.214C29.2243 13.5694 28.303 12.0969 27.0727 10.8605C25.9688 9.75132 25.1011 9.13232 23.7246 8.47222C22.2966 7.7874 21.0343 7.45415 19.5395 7.36733C18.5374 7.30913 18.3067 7.31211 17.499 7.3937ZM22.331 10.2641C21.6517 10.6913 21.0249 11.3009 20.5927 11.9548C20.3268 12.3573 19.9681 13.0742 19.844 13.4513L19.7654 13.6904L19.0716 14.0029C18.6901 14.1748 18.2415 14.386 18.0747 14.4723L17.7715 14.6292L17.3911 14.4098C16.4236 13.8518 15.2729 13.3793 14.3252 13.1509C13.7507 13.0124 12.5893 12.8359 12.2524 12.8359C11.9249 12.8359 11.415 13.0034 11.1702 13.1913C10.9636 13.3498 10.7492 13.599 10.7884 13.6351C10.8 13.6458 11.3699 13.7463 12.0547 13.8586C13.6544 14.1208 14.1593 14.2262 14.7891 14.4291C15.2836 14.5884 16.5984 15.2001 16.5931 15.2684C16.5916 15.2868 16.3909 15.4446 16.1469 15.6191C14.2154 17.0011 12.7284 18.8371 11.9356 20.8186C11.6937 21.4233 11.483 22.1805 11.4152 22.6882C11.3135 23.451 11.427 24.3133 11.6287 24.3094C11.6956 24.3081 12.4426 23.6707 12.4957 23.5696C12.5144 23.534 12.5895 23.2083 12.6626 22.8457C13.0077 21.1328 13.4697 20.0974 14.4897 18.7503L14.6144 18.5857L14.6498 18.7178C14.6692 18.7905 14.6868 19.381 14.6887 20.03C14.6919 21.1158 14.7805 24.613 14.8119 24.8965C14.8193 24.9636 14.8282 25.1339 14.8316 25.2749C14.8353 25.4249 14.8602 25.5312 14.8915 25.5312C14.9211 25.5312 15.0727 25.4526 15.2284 25.3565C15.4848 25.1982 15.5143 25.1624 15.5408 24.9781C15.5677 24.7907 15.5908 24.3336 15.7144 21.5518C15.8563 18.3558 15.9273 17.3042 16.0055 17.2421C16.2962 17.0113 17.0389 16.516 17.4468 16.281C18.009 15.9571 19.2552 15.3262 19.333 15.3262C19.3689 15.3262 19.3748 15.4157 19.3511 15.605C19.3259 15.8066 19.2558 15.9859 19.0981 16.252C17.6299 18.7305 16.9354 21.9524 17.1823 25.1406C17.2278 25.7284 17.4093 26.9458 17.4589 26.9961C17.4892 27.0268 17.8944 26.5735 18.1683 26.2026L18.3756 25.9219L18.3605 24.5913C18.3522 23.8513 18.3704 22.979 18.4016 22.626C18.5122 21.3725 18.8307 19.7771 19.1364 18.9457C19.3455 18.377 19.5644 17.8555 19.6156 17.8043C19.6443 17.7756 19.6999 17.9203 19.7636 18.1902C19.9282 18.8865 20.0465 19.2631 20.2162 19.6314L20.3756 19.9771L20.2424 20.7645C20.0266 22.0402 19.8184 24.7844 19.8184 26.3524C19.8184 27.3873 19.9489 28.1191 20.1334 28.1191C20.171 28.1191 20.3903 27.9378 20.6207 27.7163L21.0396 27.3135L21.0399 26.8252C21.0413 24.8625 21.2624 21.0879 21.376 21.0879C21.4274 21.0879 21.8624 21.9345 22.0713 22.441C22.3336 23.077 22.728 24.2289 22.8719 24.7792C23.0666 25.524 23.173 25.7562 23.4494 26.0393C23.752 26.3492 23.9413 26.4545 24.2644 26.4928C24.4548 26.5154 24.5059 26.5066 24.5059 26.4514C24.5059 26.3166 24.2109 24.9328 24.0921 24.5104C23.6086 22.791 22.5905 20.6798 21.8652 19.893L21.6646 19.6754L21.8226 19.1976C21.9095 18.9348 22.0526 18.5756 22.1405 18.3994C22.2856 18.1088 22.7558 17.3784 22.9822 17.0918L23.0725 16.9775L23.6841 17.3742L24.2956 17.7708L24.3257 18.6603C24.3805 20.2786 24.5916 22.0229 24.7585 22.2351C24.9671 22.5003 25.8817 22.8118 25.9477 22.64C25.9629 22.6003 25.9091 22.3392 25.8282 22.0598C25.6671 21.5037 25.5594 20.6684 25.4825 19.3789C25.4199 18.3291 25.418 18.3859 25.5144 18.4229C25.6167 18.4622 26.8301 19.2227 27.6368 19.7532C28.4773 20.3059 28.433 20.2979 28.3891 19.8874C28.3206 19.2478 28.1481 18.9632 27.5576 18.5149C27.3643 18.3682 24.5482 16.4861 24.0037 16.1396C23.8483 16.0408 23.7085 15.9269 23.693 15.8865C23.6593 15.7986 23.9212 15.3486 24.1751 15.0582C24.3804 14.8232 24.9261 14.5213 25.458 14.3483C26.1184 14.1335 26.8353 13.7341 26.7373 13.6354C26.6626 13.5601 25.7594 13.557 25.3359 13.6306C24.7885 13.7257 23.9264 14.0548 23.5236 14.3224C23.3458 14.4405 23.117 14.6389 23.0151 14.7633L22.8298 14.9895L22.5895 14.755C22.357 14.528 21.8384 13.9112 21.6909 13.686C21.6246 13.5849 21.6308 13.5512 21.7654 13.2798C22.0968 12.6119 22.5651 12.1292 23.2597 11.7393L23.6783 11.5043L23.596 11.3767C23.5309 11.2755 22.9623 10.5347 22.6694 10.1692C22.6023 10.0855 22.6252 10.0791 22.331 10.2641ZM20.8923 15.2249C20.7781 15.6317 20.7367 16.2812 20.7906 16.8194C20.8502 17.4136 20.9864 18.1582 21.0356 18.1582C21.0532 18.1582 21.1288 18.0333 21.2038 17.8805C21.2787 17.7278 21.5257 17.319 21.7527 16.9721C21.9798 16.6251 22.1703 16.3263 22.176 16.308C22.1818 16.2897 21.9063 15.9992 21.5639 15.6625L20.9413 15.0502L20.8923 15.2249Z" fill="#30BB93"/>
<path d="M160.115 22.2369C159.233 22.5292 158.351 22.738 157.469 22.8633C156.592 22.9938 155.694 23.059 154.776 23.059C153.601 23.059 152.555 22.9338 151.636 22.6832C150.723 22.4275 149.953 22.0595 149.326 21.5793C148.7 21.0991 148.222 20.5119 147.894 19.8177C147.565 19.1235 147.4 18.3379 147.4 17.461C147.4 16.6468 147.565 15.8925 147.894 15.1983C148.228 14.4989 148.697 13.8934 149.303 13.3819C149.914 12.8652 150.65 12.4633 151.511 12.1762C152.372 11.8839 153.332 11.7377 154.392 11.7377C155.368 11.7377 156.261 11.8708 157.07 12.137C157.884 12.398 158.581 12.7869 159.16 13.3036C159.745 13.8203 160.196 14.4571 160.515 15.214C160.838 15.9708 161 16.8425 161 17.829V18.5493H150.399C150.493 18.8886 150.647 19.1991 150.861 19.481C151.08 19.7629 151.375 20.003 151.746 20.2013C152.116 20.3996 152.57 20.5536 153.108 20.6632C153.651 20.7728 154.298 20.8277 155.05 20.8277C155.582 20.8277 156.104 20.7963 156.616 20.7337C157.127 20.6658 157.605 20.5797 158.048 20.4753C158.492 20.3657 158.891 20.2457 159.246 20.1152C159.606 19.9847 159.896 19.8542 160.115 19.7237V22.2369ZM158.111 16.4197C158.085 16.1535 158.004 15.8795 157.868 15.5976C157.738 15.3105 157.529 15.0522 157.242 14.8225C156.955 14.5928 156.579 14.4049 156.114 14.2588C155.65 14.1074 155.071 14.0317 154.376 14.0317C153.724 14.0317 153.16 14.1126 152.685 14.2745C152.21 14.4363 151.811 14.6372 151.487 14.8773C151.169 15.1174 150.921 15.3758 150.744 15.6524C150.566 15.9291 150.451 16.1848 150.399 16.4197H158.111Z" fill="#30BB93"/>
<path d="M141.027 22.7694H137.645L132.203 12.0118H135.445L139.36 20.1074L143.266 12.0118H146.508L141.027 22.7694Z" fill="#30BB93"/>
<path d="M131.319 17.3984C131.319 18.3222 131.149 19.1391 130.81 19.849C130.471 20.5536 129.985 21.1434 129.354 21.6184C128.722 22.0934 127.955 22.4536 127.052 22.6989C126.154 22.939 125.144 23.059 124.022 23.059C122.9 23.059 121.884 22.939 120.976 22.6989C120.073 22.4536 119.303 22.0934 118.666 21.6184C118.03 21.1434 117.539 20.5536 117.195 19.849C116.85 19.1391 116.678 18.3222 116.678 17.3984C116.678 16.4745 116.85 15.6603 117.195 14.9556C117.539 14.2457 118.03 13.6533 118.666 13.1783C119.303 12.7034 120.073 12.3458 120.976 12.1057C121.884 11.8604 122.9 11.7377 124.022 11.7377C125.144 11.7377 126.154 11.8604 127.052 12.1057C127.955 12.3458 128.722 12.7034 129.354 13.1783C129.985 13.6533 130.471 14.2457 130.81 14.9556C131.149 15.6603 131.319 16.4745 131.319 17.3984ZM128.383 17.3984C128.383 16.9965 128.318 16.5972 128.187 16.2005C128.062 15.7986 127.835 15.4384 127.506 15.12C127.182 14.8016 126.739 14.5433 126.175 14.3449C125.611 14.1466 124.893 14.0474 124.022 14.0474C123.437 14.0474 122.923 14.0944 122.479 14.1883C122.036 14.2771 121.652 14.4023 121.328 14.5641C121.005 14.7259 120.733 14.9165 120.514 15.1357C120.295 15.3497 120.12 15.582 119.99 15.8325C119.859 16.0778 119.765 16.3362 119.708 16.6076C119.656 16.8738 119.63 17.1374 119.63 17.3984C119.63 17.6646 119.656 17.9334 119.708 18.2048C119.765 18.4762 119.859 18.7372 119.99 18.9877C120.12 19.2331 120.295 19.4627 120.514 19.6767C120.733 19.8907 121.005 20.0786 121.328 20.2404C121.652 20.397 122.036 20.5223 122.479 20.6163C122.923 20.705 123.437 20.7494 124.022 20.7494C124.893 20.7494 125.611 20.6502 126.175 20.4518C126.739 20.2535 127.182 19.9951 127.506 19.6767C127.835 19.3583 128.062 19.0008 128.187 18.6041C128.318 18.2022 128.383 17.8003 128.383 17.3984Z" fill="#30BB93"/>
<path d="M115.55 14.4467C115.472 14.4206 115.357 14.3867 115.206 14.3449C115.06 14.2979 114.888 14.2536 114.689 14.2118C114.491 14.1648 114.272 14.1257 114.032 14.0944C113.797 14.0631 113.554 14.0474 113.303 14.0474C112.781 14.0474 112.293 14.1126 111.839 14.2431C111.39 14.3684 110.97 14.538 110.579 14.752C110.187 14.9608 109.822 15.2009 109.483 15.4724C109.149 15.7386 108.841 16.0126 108.559 16.2944V22.7693H105.654V12.0118H108.559V13.7577C108.908 13.4967 109.266 13.2462 109.631 13.0061C110.002 12.7608 110.386 12.5442 110.782 12.3563C111.184 12.1683 111.607 12.0196 112.051 11.91C112.494 11.7951 112.964 11.7377 113.46 11.7377C113.648 11.7377 113.838 11.7482 114.032 11.769C114.23 11.7847 114.42 11.8056 114.603 11.8317C114.791 11.8578 114.966 11.8865 115.128 11.9178C115.289 11.9491 115.43 11.9804 115.55 12.0118V14.4467Z" fill="#30BB93"/>
<path d="M96.8303 11.7377C97.8847 11.7377 98.8633 11.8291 99.7663 12.0118C100.675 12.1892 101.507 12.4189 102.264 12.7007V15.3314C101.966 15.1644 101.63 15.0026 101.254 14.846C100.883 14.6894 100.479 14.5511 100.04 14.431C99.6019 14.311 99.1322 14.2144 98.6311 14.1414C98.13 14.0683 97.6028 14.0317 97.0495 14.0317C96.3606 14.0317 95.7603 14.0813 95.2488 14.1805C94.7373 14.2797 94.2988 14.4128 93.9334 14.5798C93.5681 14.7468 93.2679 14.9426 93.0331 15.167C92.7982 15.3862 92.6129 15.6211 92.4772 15.8716C92.3415 16.1222 92.2475 16.378 92.1953 16.6389C92.1431 16.8999 92.117 17.1531 92.117 17.3984C92.117 17.6124 92.1379 17.8447 92.1797 18.0952C92.2266 18.3457 92.3101 18.5963 92.4302 18.8468C92.5555 19.0974 92.7277 19.3375 92.9469 19.5671C93.1662 19.7968 93.4506 20.0003 93.8003 20.1778C94.1553 20.3553 94.5807 20.4988 95.0765 20.6084C95.5724 20.7128 96.1622 20.765 96.846 20.765C97.1905 20.765 97.4906 20.7546 97.7464 20.7337C98.0021 20.7128 98.2344 20.6841 98.4432 20.6476C98.6572 20.611 98.8555 20.5667 99.0382 20.5145C99.2261 20.4623 99.4192 20.4075 99.6176 20.3501V19.0504H96.3606V16.6937H102.522V22.19C102.136 22.3205 101.703 22.4405 101.223 22.5501C100.748 22.6545 100.254 22.7432 99.7428 22.8163C99.2365 22.8946 98.7276 22.9546 98.2161 22.9964C97.7046 23.0382 97.2218 23.059 96.7677 23.059C96.063 23.059 95.3871 23.0121 94.7399 22.9181C94.0926 22.8241 93.4872 22.6806 92.9234 22.4875C92.365 22.2891 91.8534 22.0386 91.3889 21.7359C90.9296 21.4331 90.5355 21.073 90.2066 20.6554C89.883 20.2378 89.6299 19.7602 89.4472 19.2226C89.2697 18.6798 89.181 18.0717 89.181 17.3984C89.181 16.7303 89.275 16.1248 89.4629 15.582C89.6508 15.0391 89.9117 14.5589 90.2458 14.1414C90.5851 13.7238 90.9896 13.3636 91.4594 13.0609C91.9343 12.7582 92.4537 12.5102 93.0174 12.3171C93.5863 12.1188 94.1918 11.9726 94.8338 11.8787C95.481 11.7847 96.1465 11.7377 96.8303 11.7377Z" fill="#30BB93"/>
<path d="M83.677 22.7693V16.7407C83.677 16.3388 83.643 15.976 83.5752 15.6524C83.5073 15.3236 83.3794 15.0443 83.1915 14.8147C83.0088 14.5798 82.7505 14.3997 82.4164 14.2745C82.0876 14.144 81.6622 14.0787 81.1402 14.0787C80.7435 14.0787 80.326 14.1335 79.8875 14.2431C79.4543 14.3475 79.0237 14.4885 78.5957 14.6659C78.1677 14.8434 77.7579 15.0496 77.3665 15.2844C76.9802 15.5193 76.6357 15.7646 76.333 16.0204V22.7693H73.4283V12.0118H76.333V13.4837C76.6984 13.2749 77.0872 13.0687 77.4996 12.8652C77.9119 12.6564 78.3504 12.4685 78.8149 12.3014C79.2794 12.1344 79.7727 11.9987 80.2947 11.8943C80.8166 11.7899 81.3673 11.7377 81.9467 11.7377C82.6722 11.7377 83.3194 11.8265 83.8883 12.0039C84.4625 12.1762 84.9479 12.4241 85.3446 12.7477C85.7413 13.0661 86.044 13.455 86.2528 13.9143C86.4668 14.3684 86.5738 14.8773 86.5738 15.441V22.7693H83.677Z" fill="#30BB93"/>
<path d="M67.2039 22.7694V21.7124C66.8333 21.916 66.434 22.096 66.006 22.2526C65.5832 22.4092 65.1422 22.5423 64.6828 22.6519C64.2235 22.7615 63.7485 22.8424 63.2579 22.8946C62.7725 22.952 62.2818 22.9807 61.786 22.9807C61.2066 22.9807 60.6455 22.9259 60.1026 22.8163C59.565 22.7067 59.0874 22.5293 58.6699 22.2839C58.2523 22.0386 57.9156 21.7176 57.6599 21.3209C57.4093 20.9242 57.2841 20.4388 57.2841 19.8647C57.2841 19.1391 57.4824 18.5363 57.8791 18.0561C58.2758 17.5706 58.8813 17.174 59.6955 16.866C60.5098 16.558 61.538 16.3205 62.7803 16.1535C64.0278 15.9865 65.5023 15.856 67.2039 15.7621V15.535C67.2039 15.3575 67.1569 15.1827 67.063 15.0104C66.969 14.833 66.7968 14.679 66.5462 14.5485C66.3009 14.4128 65.9616 14.3032 65.5284 14.2197C65.1004 14.1361 64.5523 14.0944 63.8842 14.0944C63.3571 14.0944 62.8351 14.1231 62.3184 14.1805C61.8068 14.2327 61.311 14.3058 60.8308 14.3997C60.3558 14.4937 59.9043 14.6033 59.4763 14.7286C59.0483 14.8538 58.6594 14.9843 58.3097 15.12V12.5363C58.6751 12.4424 59.0848 12.351 59.5389 12.2623C59.993 12.1736 60.4654 12.0979 60.956 12.0353C61.4467 11.9674 61.9425 11.9152 62.4436 11.8787C62.9447 11.8369 63.4249 11.816 63.8842 11.816C64.7872 11.816 65.6197 11.8917 66.3818 12.0431C67.1439 12.1892 67.7989 12.4189 68.347 12.7321C68.9003 13.0453 69.3309 13.4419 69.6388 13.9221C69.952 14.4023 70.1086 14.9739 70.1086 15.6368V22.7694H67.2039ZM67.2039 17.8603C66.0869 17.9021 65.1369 17.9621 64.354 18.0404C63.5763 18.1187 62.929 18.21 62.4123 18.3144C61.8956 18.4188 61.4884 18.531 61.1909 18.6511C60.8986 18.7711 60.6794 18.8938 60.5333 19.0191C60.3871 19.1443 60.2958 19.2696 60.2592 19.3949C60.2279 19.5202 60.2122 19.635 60.2122 19.7394C60.2122 19.8647 60.2462 19.9873 60.314 20.1074C60.3819 20.2222 60.4993 20.324 60.6664 20.4127C60.8386 20.5014 61.0657 20.5719 61.3475 20.6241C61.6294 20.6763 61.9843 20.7024 62.4123 20.7024C62.8873 20.7024 63.3518 20.6659 63.8059 20.5928C64.26 20.5197 64.6907 20.4205 65.0978 20.2953C65.5049 20.1648 65.8859 20.0134 66.2409 19.8412C66.601 19.6637 66.922 19.4758 67.2039 19.2774V17.8603Z" fill="#30BB93"/>
<path d="M51.827 22.7694V15.214L47.834 22.7694H45.0467L41.0537 15.214V22.7694H38.149V12.0118H42.095L46.4403 20.1543L50.7857 12.0118H54.716V22.7694H51.827Z" fill="#30BB93"/>
</svg>
